<?xml version="1.0" standalone="no"?><!DOCTYPE svg PUBLIC "-//W3C//DTD SVG 1.1//EN" "http://www.w3.org/Graphics/SVG/1.1/DTD/svg11.dtd"><svg t="1713339600264" class="icon" viewBox="0 0 1024 1024" version="1.1" xmlns="http://www.w3.org/2000/svg" p-id="7604" width="64" height="64" xmlns:xlink="http://www.w3.org/1999/xlink"><path d="M1015.7056 961.8432A102.8096 102.8096 0 0 1 921.6 1024h-166.4a38.4 38.4 0 0 1 0-76.8H896a51.2 51.2 0 0 0 51.2-51.2V128a51.2 51.2 0 0 0-51.2-51.2H128a51.2 51.2 0 0 0-51.2 51.2v768a51.2 51.2 0 0 0 51.2 51.2h140.8a38.4 38.4 0 0 1 0 76.8H102.4a102.8096 102.8096 0 0 1-94.1056-62.1568A101.5808 101.5808 0 0 1 0 921.6V102.4A102.7072 102.7072 0 0 1 102.4 0h819.2a102.7072 102.7072 0 0 1 102.4 102.4v819.2a101.5808 101.5808 0 0 1-8.2944 40.2432z" fill="#00C080" p-id="7605"></path><path d="M256 166.4m38.4 0l435.2 0q38.4 0 38.4 38.4l0 0q0 38.4-38.4 38.4l-435.2 0q-38.4 0-38.4-38.4l0 0q0-38.4 38.4-38.4Z" fill="#00C080" p-id="7606"></path><path d="M720.128 525.0048l-180.0704-180.0192-0.8704-0.9728a38.1952 38.1952 0 0 0-23.1424-11.2128 37.0688 37.0688 0 0 0-7.7824 0 38.1952 38.1952 0 0 0-23.1424 11.008l-0.8704 0.9728-180.3776 180.224A38.4 38.4 0 0 0 358.4 579.328l115.2-115.4048v444.8768a38.4 38.4 0 0 0 76.8 0V463.9232l115.2 115.4048a38.4 38.4 0 0 0 54.3232-54.3232z" fill="#00C080" p-id="7607"></path></svg>